#N canvas 13 50 1960 916 10;
#X obj 418 124 textfile;
#X msg 506 89 rewind;
#X obj 109 360 *~;
#X obj 126 319 osc~;
#X obj 126 267 * 1;
#X floatatom 126 296 5 0 0 0 - - -;
#X floatatom 837 67 5 0 0 0 - - -;
#X text 836 48 Fundamental Freq;
#X obj 265 360 *~;
#X obj 282 319 osc~;
#X floatatom 282 296 5 0 0 0 - - -;
#X obj 282 267 * 2;
#X obj 413 361 *~;
#X obj 432 320 osc~;
#X floatatom 432 297 5 0 0 0 - - -;
#X obj 432 268 * 3;
#X obj 837 87 s fundamental;
#X obj 126 238 r fundamental;
#X obj 282 238 r fundamental;
#X obj 432 239 r fundamental;
#X obj 351 66 r start;
#X text 560 89 play;
#X msg 80 273 \$1 2;
#X msg 237 277 \$1 2;
#X msg 387 287 \$1 2;
#X obj 80 298 line~;
#X obj 237 300 line~;
#X obj 387 310 line~;
#X obj 934 454 dac~;
#X obj 418 172 s h1;
#X obj 80 249 r h1;
#X obj 503 172 s h3;
#X obj 460 172 s h2;
#X obj 237 254 r h2;
#X obj 387 264 r h3;
#N canvas 55 533 970 176 visual 0;
#X obj -1764 -2896 vsl 15 128 0 1 0 0 empty empty empty 0 -9 0 10 -262144
-1 -1 0 1;
#X obj -1724 -2896 vsl 15 128 0 1 0 0 empty empty empty 0 -9 0 10 -262144
-1 -1 0 1;
#X obj -1681 -2896 vsl 15 128 0 1 0 0 empty empty empty 0 -9 0 10 -262144
-1 -1 0 1;
#X obj -1764 -2923 r h1;
#X obj -1724 -2923 r h2;
#X obj -1681 -2923 r h3;
#X obj -1634 -2895 vsl 15 128 0 1 0 0 empty empty empty 0 -9 0 10 -262144
-1 -1 0 1;
#X obj -1594 -2895 vsl 15 128 0 1 0 0 empty empty empty 0 -9 0 10 -262144
-1 -1 0 1;
#X obj -1551 -2895 vsl 15 128 0 1 0 0 empty empty empty 0 -9 0 10 -262144
-1 -1 0 1;
#X obj -1634 -2922 r h4;
#X obj -1594 -2922 r h5;
#X obj -1551 -2922 r h6;
#X obj -1506 -2896 vsl 15 128 0 1 0 0 empty empty empty 0 -9 0 10 -262144
-1 -1 0 1;
#X obj -1466 -2896 vsl 15 128 0 1 0 0 empty empty empty 0 -9 0 10 -262144
-1 -1 0 1;
#X obj -1423 -2896 vsl 15 128 0 1 0 0 empty empty empty 0 -9 0 10 -262144
-1 -1 0 1;
#X obj -1376 -2895 vsl 15 128 0 1 0 0 empty empty empty 0 -9 0 10 -262144
-1 -1 0 1;
#X obj -1506 -2923 r h7;
#X obj -1466 -2923 r h8;
#X obj -1423 -2923 r h9;
#X obj -1376 -2922 r h10;
#X obj -1328 -2894 vsl 15 128 0 1 0 0 empty empty empty 0 -9 0 10 -262144
-1 -1 0 1;
#X obj -1328 -2921 r h11;
#X obj -1281 -2894 vsl 15 128 0 1 0 0 empty empty empty 0 -9 0 10 -262144
-1 -1 0 1;
#X obj -1233 -2893 vsl 15 128 0 1 0 0 empty empty empty 0 -9 0 10 -262144
-1 -1 0 1;
#X obj -1281 -2921 r h12;
#X obj -1233 -2920 r h13;
#X obj -1186 -2895 vsl 15 128 0 1 0 0 empty empty empty 0 -9 0 10 -262144
-1 -1 0 1;
#X obj -1138 -2894 vsl 15 128 0 1 0 0 empty empty empty 0 -9 0 10 -262144
-1 -1 0 1;
#X obj -1091 -2894 vsl 15 128 0 1 0 0 empty empty empty 0 -9 0 10 -262144
-1 -1 0 1;
#X obj -1043 -2893 vsl 15 128 0 1 0 0 empty empty empty 0 -9 0 10 -262144
-1 -1 0 1;
#X obj -1186 -2922 r h14;
#X obj -1138 -2921 r h15;
#X obj -1091 -2921 r h16;
#X obj -1043 -2920 r h17;
#X obj -992 -2893 vsl 15 128 0 1 0 0 empty empty empty 0 -9 0 10 -262144
-1 -1 0 1;
#X obj -945 -2893 vsl 15 128 0 1 0 0 empty empty empty 0 -9 0 10 -262144
-1 -1 0 1;
#X obj -897 -2892 vsl 15 128 0 1 0 0 empty empty empty 0 -9 0 10 -262144
-1 -1 0 1;
#X obj -992 -2920 r h18;
#X obj -945 -2920 r h19;
#X obj -897 -2919 r h20;
#X connect 3 0 0 0;
#X connect 4 0 1 0;
#X connect 5 0 2 0;
#X connect 9 0 6 0;
#X connect 10 0 7 0;
#X connect 11 0 8 0;
#X connect 16 0 12 0;
#X connect 17 0 13 0;
#X connect 18 0 14 0;
#X connect 19 0 15 0;
#X connect 21 0 20 0;
#X connect 24 0 22 0;
#X connect 25 0 23 0;
#X connect 30 0 26 0;
#X connect 31 0 27 0;
#X connect 32 0 28 0;
#X connect 33 0 29 0;
#X connect 37 0 34 0;
#X connect 38 0 35 0;
#X connect 39 0 36 0;
#X restore 1005 52 pd visual;
#X obj 418 150 unpack f f f f f f f f f f f f f f f f f f f f, f 116
;
#X obj 545 172 s h4;
#X obj 588 172 s h5;
#X obj 630 172 s h6;
#X obj 673 172 s h7;
#X obj 716 172 s h8;
#X obj 758 173 s h9;
#X obj 801 173 s h10;
#X obj 843 174 s h11;
#X obj 886 174 s h12;
#X obj 929 173 s h13;
#X obj 971 174 s h14;
#X obj 1014 174 s h15;
#X obj 1056 173 s h16;
#X obj 1099 173 s h17;
#X obj 1142 172 s h18;
#X obj 1184 173 s h19;
#X obj 1227 173 s h20;
#X obj 573 360 *~;
#X obj 592 319 osc~;
#X floatatom 592 296 5 0 0 0 - - -;
#X obj 592 238 r fundamental;
#X msg 547 286 \$1 2;
#X obj 547 309 line~;
#X obj 547 263 r h4;
#X obj 592 267 * 4;
#X obj 727 359 *~;
#X obj 746 318 osc~;
#X floatatom 746 295 5 0 0 0 - - -;
#X obj 746 237 r fundamental;
#X msg 701 285 \$1 2;
#X obj 701 308 line~;
#X obj 887 358 *~;
#X obj 906 317 osc~;
#X floatatom 906 294 5 0 0 0 - - -;
#X obj 906 236 r fundamental;
#X msg 861 284 \$1 2;
#X obj 861 307 line~;
#X obj 701 262 r h5;
#X obj 746 266 * 5;
#X obj 861 261 r h6;
#X obj 906 265 * 6;
#X obj 1044 359 *~;
#X obj 1063 318 osc~;
#X floatatom 1063 295 5 0 0 0 - - -;
#X obj 1063 237 r fundamental;
#X msg 1018 285 \$1 2;
#X obj 1018 308 line~;
#X obj 1204 358 *~;
#X obj 1223 317 osc~;
#X floatatom 1223 294 5 0 0 0 - - -;
#X obj 1223 236 r fundamental;
#X msg 1178 284 \$1 2;
#X obj 1178 307 line~;
#X obj 1358 357 *~;
#X obj 1377 316 osc~;
#X floatatom 1377 293 5 0 0 0 - - -;
#X obj 1377 235 r fundamental;
#X msg 1332 283 \$1 2;
#X obj 1332 306 line~;
#X obj 1518 356 *~;
#X obj 1537 315 osc~;
#X floatatom 1537 292 5 0 0 0 - - -;
#X obj 1537 234 r fundamental;
#X msg 1492 282 \$1 2;
#X obj 1492 305 line~;
#X obj 1018 262 r h7;
#X obj 1063 266 * 7;
#X obj 1178 261 r h8;
#X obj 1223 265 * 8;
#X obj 1332 260 r h9;
#X obj 1377 264 * 9;
#X obj 1492 259 r h10;
#X obj 1537 263 * 10;
#X obj 1517 381 /~ 20;
#X obj 1357 382 /~ 20;
#X obj 1203 383 /~ 20;
#X obj 1043 384 /~ 20;
#X obj 886 383 /~ 20;
#X obj 726 384 /~ 20;
#X obj 572 385 /~ 20;
#X obj 412 386 /~ 20;
#X obj 265 388 /~ 20;
#X obj 110 386 /~ 20;
#X obj 1682 367 *~;
#X obj 1699 326 osc~;
#X floatatom 1699 303 5 0 0 0 - - -;
#X obj 1838 367 *~;
#X obj 1855 326 osc~;
#X floatatom 1855 303 5 0 0 0 - - -;
#X obj 1986 368 *~;
#X obj 2005 327 osc~;
#X floatatom 2005 304 5 0 0 0 - - -;
#X obj 1699 245 r fundamental;
#X obj 1855 245 r fundamental;
#X obj 2005 246 r fundamental;
#X msg 1653 280 \$1 2;
#X msg 1810 284 \$1 2;
#X msg 1960 294 \$1 2;
#X obj 1653 305 line~;
#X obj 1810 307 line~;
#X obj 1960 317 line~;
#X obj 2146 367 *~;
#X obj 2165 326 osc~;
#X floatatom 2165 303 5 0 0 0 - - -;
#X obj 2165 245 r fundamental;
#X msg 2120 293 \$1 2;
#X obj 2120 316 line~;
#X obj 2300 366 *~;
#X obj 2319 325 osc~;
#X floatatom 2319 302 5 0 0 0 - - -;
#X obj 2319 244 r fundamental;
#X msg 2274 292 \$1 2;
#X obj 2274 315 line~;
#X obj 2460 365 *~;
#X obj 2479 324 osc~;
#X floatatom 2479 301 5 0 0 0 - - -;
#X obj 2479 243 r fundamental;
#X msg 2434 291 \$1 2;
#X obj 2434 314 line~;
#X obj 2617 366 *~;
#X obj 2636 325 osc~;
#X floatatom 2636 302 5 0 0 0 - - -;
#X obj 2636 244 r fundamental;
#X msg 2591 292 \$1 2;
#X obj 2591 315 line~;
#X obj 2777 365 *~;
#X obj 2796 324 osc~;
#X floatatom 2796 301 5 0 0 0 - - -;
#X obj 2796 243 r fundamental;
#X msg 2751 291 \$1 2;
#X obj 2751 314 line~;
#X obj 2931 364 *~;
#X obj 2950 323 osc~;
#X floatatom 2950 300 5 0 0 0 - - -;
#X obj 2950 242 r fundamental;
#X msg 2905 290 \$1 2;
#X obj 2905 313 line~;
#X obj 3091 363 *~;
#X obj 3110 322 osc~;
#X floatatom 3110 299 5 0 0 0 - - -;
#X obj 3110 241 r fundamental;
#X msg 3065 289 \$1 2;
#X obj 3065 312 line~;
#X obj 3090 388 /~ 20;
#X obj 2930 389 /~ 20;
#X obj 2776 390 /~ 20;
#X obj 2616 391 /~ 20;
#X obj 2459 390 /~ 20;
#X obj 2299 391 /~ 20;
#X obj 2145 392 /~ 20;
#X obj 1985 393 /~ 20;
#X obj 1838 395 /~ 20;
#X obj 1683 393 /~ 20;
#X obj 1653 256 r h11;
#X obj 1699 274 * 11;
#X obj 1810 261 r h12;
#X obj 1855 274 * 12;
#X obj 1960 271 r h13;
#X obj 2005 275 * 13;
#X obj 2120 270 r h14;
#X obj 2165 274 * 14;
#X obj 2274 269 r h15;
#X obj 2319 273 * 15;
#X obj 2434 268 r h16;
#X obj 2479 272 * 16;
#X obj 2591 269 r h17;
#X obj 2636 273 * 17;
#X obj 2751 268 r h18;
#X obj 2796 272 * 18;
#X obj 2905 267 r h19;
#X obj 2950 271 * 19;
#X obj 3065 266 r h20;
#X obj 3110 270 * 20;
#X floatatom 415 69 5 0 0 0 - - -;
#X msg 471 47 read histograms.txt cr;
#X obj 351 91 metro 15;
#X obj 506 69 r fundamental;
#N canvas 195 381 868 183 notes 0;
#X obj 46 33 key;
#X floatatom 46 55 5 0 0 0 - - -;
#X obj 46 101 bng 15 250 50 0 empty empty empty 17 7 0 10 -262144 -1
-1;
#X text 44 8 DO;
#X msg 46 121 32.7;
#X obj 45 147 s fundamental;
#X obj 146 33 key;
#X floatatom 146 55 5 0 0 0 - - -;
#X obj 146 101 bng 15 250 50 0 empty empty empty 17 7 0 10 -262144
-1 -1;
#X obj 145 147 s fundamental;
#X obj 246 33 key;
#X floatatom 246 55 5 0 0 0 - - -;
#X obj 246 101 bng 15 250 50 0 empty empty empty 17 7 0 10 -262144
-1 -1;
#X obj 245 147 s fundamental;
#X obj 344 33 key;
#X floatatom 344 55 5 0 0 0 - - -;
#X obj 344 101 bng 15 250 50 0 empty empty empty 17 7 0 10 -262144
-1 -1;
#X obj 343 147 s fundamental;
#X obj 448 34 key;
#X floatatom 448 56 5 0 0 0 - - -;
#X obj 448 102 bng 15 250 50 0 empty empty empty 17 7 0 10 -262144
-1 -1;
#X obj 447 148 s fundamental;
#X obj 547 34 key;
#X floatatom 547 56 5 0 0 0 - - -;
#X obj 547 102 bng 15 250 50 0 empty empty empty 17 7 0 10 -262144
-1 -1;
#X obj 546 148 s fundamental;
#X obj 645 34 key;
#X floatatom 645 56 5 0 0 0 - - -;
#X obj 645 102 bng 15 250 50 0 empty empty empty 17 7 0 10 -262144
-1 -1;
#X obj 644 148 s fundamental;
#X obj 749 35 key;
#X floatatom 749 57 5 0 0 0 - - -;
#X obj 749 103 bng 15 250 50 0 empty empty empty 17 7 0 10 -262144
-1 -1;
#X text 747 10 DO;
#X obj 748 149 s fundamental;
#X text 144 8 RE;
#X text 244 8 MI;
#X text 342 8 FA;
#X text 446 9 SOL;
#X text 545 9 LA;
#X text 643 9 SI;
#X msg 146 121 36.71;
#X msg 246 121 41.2;
#X msg 344 122 43.65;
#X msg 448 122 49;
#X msg 547 122 55;
#X msg 645 122 61.74;
#X msg 749 123 65.41;
#X obj 46 74 sel 49;
#X obj 146 74 sel 50;
#X obj 246 74 sel 51;
#X obj 344 74 sel 52;
#X obj 448 75 sel 53;
#X obj 547 75 sel 54;
#X obj 645 75 sel 55;
#X obj 749 76 sel 56;
#X connect 0 0 1 0;
#X connect 1 0 48 0;
#X connect 2 0 4 0;
#X connect 4 0 5 0;
#X connect 6 0 7 0;
#X connect 7 0 49 0;
#X connect 8 0 41 0;
#X connect 10 0 11 0;
#X connect 11 0 50 0;
#X connect 12 0 42 0;
#X connect 14 0 15 0;
#X connect 15 0 51 0;
#X connect 16 0 43 0;
#X connect 18 0 19 0;
#X connect 19 0 52 0;
#X connect 20 0 44 0;
#X connect 22 0 23 0;
#X connect 23 0 53 0;
#X connect 24 0 45 0;
#X connect 26 0 27 0;
#X connect 27 0 54 0;
#X connect 28 0 46 0;
#X connect 30 0 31 0;
#X connect 31 0 55 0;
#X connect 32 0 47 0;
#X connect 41 0 9 0;
#X connect 42 0 13 0;
#X connect 43 0 17 0;
#X connect 44 0 21 0;
#X connect 45 0 25 0;
#X connect 46 0 29 0;
#X connect 47 0 34 0;
#X connect 48 0 2 0;
#X connect 49 0 8 0;
#X connect 50 0 12 0;
#X connect 51 0 16 0;
#X connect 52 0 20 0;
#X connect 53 0 24 0;
#X connect 54 0 28 0;
#X connect 55 0 32 0;
#X restore 1006 81 pd notes;
#X obj 471 20 r start;
#X msg 80 66 \; pd dsp 1 \; start bang;
#X msg 178 66 \; pd dsp 0 \; start 0;
#X text 1066 83 press numbers 1..8 to play within an octave;
#X text 1076 49 view harmonic amplitude evolution;
#X text 406 54 Duration;
#X connect 0 0 36 0;
#X connect 1 0 0 0;
#X connect 2 0 119 0;
#X connect 3 0 2 1;
#X connect 4 0 5 0;
#X connect 5 0 3 0;
#X connect 6 0 16 0;
#X connect 8 0 118 0;
#X connect 9 0 8 1;
#X connect 10 0 9 0;
#X connect 11 0 10 0;
#X connect 12 0 117 0;
#X connect 13 0 12 1;
#X connect 14 0 13 0;
#X connect 15 0 14 0;
#X connect 17 0 4 0;
#X connect 18 0 11 0;
#X connect 19 0 15 0;
#X connect 20 0 212 0;
#X connect 22 0 25 0;
#X connect 23 0 26 0;
#X connect 24 0 27 0;
#X connect 25 0 2 0;
#X connect 26 0 8 0;
#X connect 27 0 12 0;
#X connect 30 0 22 0;
#X connect 33 0 23 0;
#X connect 34 0 24 0;
#X connect 36 0 29 0;
#X connect 36 1 32 0;
#X connect 36 2 31 0;
#X connect 36 3 37 0;
#X connect 36 4 38 0;
#X connect 36 5 39 0;
#X connect 36 6 40 0;
#X connect 36 7 41 0;
#X connect 36 8 42 0;
#X connect 36 9 43 0;
#X connect 36 10 44 0;
#X connect 36 11 45 0;
#X connect 36 12 46 0;
#X connect 36 13 47 0;
#X connect 36 14 48 0;
#X connect 36 15 49 0;
#X connect 36 16 50 0;
#X connect 36 17 51 0;
#X connect 36 18 52 0;
#X connect 36 19 53 0;
#X connect 54 0 116 0;
#X connect 55 0 54 1;
#X connect 56 0 55 0;
#X connect 57 0 61 0;
#X connect 58 0 59 0;
#X connect 59 0 54 0;
#X connect 60 0 58 0;
#X connect 61 0 56 0;
#X connect 62 0 115 0;
#X connect 63 0 62 1;
#X connect 64 0 63 0;
#X connect 65 0 75 0;
#X connect 66 0 67 0;
#X connect 67 0 62 0;
#X connect 68 0 114 0;
#X connect 69 0 68 1;
#X connect 70 0 69 0;
#X connect 71 0 77 0;
#X connect 72 0 73 0;
#X connect 73 0 68 0;
#X connect 74 0 66 0;
#X connect 75 0 64 0;
#X connect 76 0 72 0;
#X connect 77 0 70 0;
#X connect 78 0 113 0;
#X connect 79 0 78 1;
#X connect 80 0 79 0;
#X connect 81 0 103 0;
#X connect 82 0 83 0;
#X connect 83 0 78 0;
#X connect 84 0 112 0;
#X connect 85 0 84 1;
#X connect 86 0 85 0;
#X connect 87 0 105 0;
#X connect 88 0 89 0;
#X connect 89 0 84 0;
#X connect 90 0 111 0;
#X connect 91 0 90 1;
#X connect 92 0 91 0;
#X connect 93 0 107 0;
#X connect 94 0 95 0;
#X connect 95 0 90 0;
#X connect 96 0 110 0;
#X connect 97 0 96 1;
#X connect 98 0 97 0;
#X connect 99 0 109 0;
#X connect 100 0 101 0;
#X connect 101 0 96 0;
#X connect 102 0 82 0;
#X connect 103 0 80 0;
#X connect 104 0 88 0;
#X connect 105 0 86 0;
#X connect 106 0 94 0;
#X connect 107 0 92 0;
#X connect 108 0 100 0;
#X connect 109 0 98 0;
#X connect 110 0 28 0;
#X connect 110 0 28 1;
#X connect 111 0 28 0;
#X connect 111 0 28 1;
#X connect 112 0 28 0;
#X connect 112 0 28 1;
#X connect 113 0 28 0;
#X connect 113 0 28 1;
#X connect 114 0 28 0;
#X connect 114 0 28 1;
#X connect 115 0 28 0;
#X connect 115 0 28 1;
#X connect 116 0 28 0;
#X connect 116 0 28 1;
#X connect 117 0 28 0;
#X connect 117 0 28 1;
#X connect 118 0 28 0;
#X connect 118 0 28 1;
#X connect 119 0 28 0;
#X connect 119 0 28 1;
#X connect 120 0 189 0;
#X connect 121 0 120 1;
#X connect 122 0 121 0;
#X connect 123 0 188 0;
#X connect 124 0 123 1;
#X connect 125 0 124 0;
#X connect 126 0 187 0;
#X connect 127 0 126 1;
#X connect 128 0 127 0;
#X connect 129 0 191 0;
#X connect 130 0 193 0;
#X connect 131 0 195 0;
#X connect 132 0 135 0;
#X connect 133 0 136 0;
#X connect 134 0 137 0;
#X connect 135 0 120 0;
#X connect 136 0 123 0;
#X connect 137 0 126 0;
#X connect 138 0 186 0;
#X connect 139 0 138 1;
#X connect 140 0 139 0;
#X connect 141 0 197 0;
#X connect 142 0 143 0;
#X connect 143 0 138 0;
#X connect 144 0 185 0;
#X connect 145 0 144 1;
#X connect 146 0 145 0;
#X connect 147 0 199 0;
#X connect 148 0 149 0;
#X connect 149 0 144 0;
#X connect 150 0 184 0;
#X connect 151 0 150 1;
#X connect 152 0 151 0;
#X connect 153 0 201 0;
#X connect 154 0 155 0;
#X connect 155 0 150 0;
#X connect 156 0 183 0;
#X connect 157 0 156 1;
#X connect 158 0 157 0;
#X connect 159 0 203 0;
#X connect 160 0 161 0;
#X connect 161 0 156 0;
#X connect 162 0 182 0;
#X connect 163 0 162 1;
#X connect 164 0 163 0;
#X connect 165 0 205 0;
#X connect 166 0 167 0;
#X connect 167 0 162 0;
#X connect 168 0 181 0;
#X connect 169 0 168 1;
#X connect 170 0 169 0;
#X connect 171 0 207 0;
#X connect 172 0 173 0;
#X connect 173 0 168 0;
#X connect 174 0 180 0;
#X connect 175 0 174 1;
#X connect 176 0 175 0;
#X connect 177 0 209 0;
#X connect 178 0 179 0;
#X connect 179 0 174 0;
#X connect 180 0 28 0;
#X connect 181 0 28 0;
#X connect 181 0 28 1;
#X connect 182 0 28 0;
#X connect 182 0 28 1;
#X connect 183 0 28 0;
#X connect 183 0 28 1;
#X connect 184 0 28 0;
#X connect 184 0 28 1;
#X connect 185 0 28 0;
#X connect 185 0 28 1;
#X connect 186 0 28 0;
#X connect 186 0 28 1;
#X connect 187 0 28 0;
#X connect 187 0 28 1;
#X connect 188 0 28 0;
#X connect 188 0 28 1;
#X connect 189 0 28 0;
#X connect 189 0 28 1;
#X connect 190 0 132 0;
#X connect 191 0 122 0;
#X connect 192 0 133 0;
#X connect 193 0 125 0;
#X connect 194 0 134 0;
#X connect 195 0 128 0;
#X connect 196 0 142 0;
#X connect 197 0 140 0;
#X connect 198 0 148 0;
#X connect 199 0 146 0;
#X connect 200 0 154 0;
#X connect 201 0 152 0;
#X connect 202 0 160 0;
#X connect 203 0 158 0;
#X connect 204 0 166 0;
#X connect 205 0 164 0;
#X connect 206 0 172 0;
#X connect 207 0 170 0;
#X connect 208 0 178 0;
#X connect 209 0 176 0;
#X connect 210 0 212 1;
#X connect 211 0 0 0;
#X connect 212 0 0 0;
#X connect 213 0 1 0;
#X connect 215 0 211 0;
